# xmcd
#
# Track frame offsets:
#	150
#	23342
#	45755
#	71190
#	93909
#	114446
#	131618
#	152864
#	177558
#	201431
#	221950
#	241780
#	268811
#
# Disc length: 3696 seconds
#
# Revision: 0
# Processed by: cddbd v1.5.2PL0 Copyright (c) Steve Scherf et al.
# Submitted via: EasyCDDAExtractor 16.0.0.1
#
DISCID=b70e6e0d
DTITLE=Blues Company - O'Town Grooves
DYEAR=2010
DGENRE=Blues
TTITLE0=Blues Go Away
TTITLE1=Homeward Bound
TTITLE2=Old Blues Singer
TTITLE3=I'm Scared To Move
TTITLE4=Keep On Tryin'
TTITLE5=Things Won't Be The Same
TTITLE6=Slaves To The Money
TTITLE7=Blues In A Bottle
TTITLE8=Ol' What's Her Name
TTITLE9=Last Train Home
TTITLE10=Walk That Way
TTITLE11=3 Files On An Empty Plate
TTITLE12=Slaves To The Money ( Slight return)
EXTD=
EXTT0=
EXTT1=
EXTT2=
EXTT3=
EXTT4=
EXTT5=
EXTT6=
EXTT7=
EXTT8=
EXTT9=
EXTT10=
EXTT11=
EXTT12=
PLAYORDER=
